<?xml version="1.0" standalone="no"?>
<!DOCTYPE svg PUBLIC "-//W3C//DTD SVG 20010904//EN"
 "http://www.w3.org/TR/2001/REC-SVG-20010904/DTD/svg10.dtd">
<svg version="1.0" xmlns="http://www.w3.org/2000/svg"
 width="744.000000pt" height="744.000000pt" viewBox="0 0 744.000000 744.000000"
 preserveAspectRatio="xMidYMid meet">
<metadata>
Created by potrace 1.11, written by Peter Selinger 2001-2013
</metadata>
<g transform="translate(0.000000,744.000000) scale(0.100000,-0.100000)"
fill="#000000" stroke="none">
<path d="M5498 7436 c-1 -2 -55 -6 -118 -10 -63 -3 -131 -8 -150 -11 -602 -93
-1122 -387 -1486 -840 -144 -179 -247 -351 -350 -582 -30 -68 -54 -126 -54
-130 0 -5 -4 -14 -8 -21 -7 -10 -24 -6 -78 19 -71 32 -267 108 -294 114 -8 2
-58 15 -110 29 -233 63 -381 81 -650 81 -191 0 -242 -3 -385 -24 -368 -54
-759 -228 -1050 -465 -151 -123 -327 -320 -422 -471 -69 -110 -157 -317 -193
-455 -67 -255 -72 -586 -15 -885 99 -519 371 -1028 756 -1415 99 -99 225 -210
314 -275 22 -17 42 -33 45 -36 3 -3 52 -37 110 -76 223 -149 448 -268 740
-393 88 -38 393 -151 465 -173 28 -8 95 -30 150 -47 89 -28 249 -74 405 -116
30 -9 118 -31 195 -51 77 -19 149 -37 160 -40 135 -34 251 -40 359 -17 38 8
70 13 72 12 1 -2 4 -75 5 -162 2 -88 6 -185 10 -215 4 -31 10 -80 13 -110 18
-151 98 -306 225 -431 150 -148 342 -227 570 -235 280 -9 515 115 619 328 49
99 66 182 61 302 -9 246 -2 460 19 570 34 176 39 196 88 350 140 437 378 888
1015 1924 21 34 39 65 39 67 0 3 15 28 33 57 101 158 447 802 447 831 0 2 15
37 34 78 103 223 218 584 241 758 3 25 8 52 10 60 19 74 27 363 14 484 -45
407 -238 779 -574 1110 -236 232 -506 383 -819 458 -110 26 -192 37 -321 44
-60 3 -115 7 -122 9 -6 2 -13 2 -15 1z m-41 -1471 c182 -42 283 -135 329 -300
13 -48 14 -261 1 -310 -3 -11 -12 -49 -21 -85 -25 -104 -80 -259 -143 -400
-75 -168 -248 -489 -351 -649 -19 -31 -46 -72 -58 -91 -20 -32 -230 -361 -331
-520 -38 -60 -196 -314 -234 -378 -147 -245 -297 -525 -394 -738 -19 -41 -36
-74 -39 -74 -2 0 -11 6 -18 13 -25 24 -103 75 -148 95 -76 34 -130 51 -265 82
-71 17 -157 37 -190 45 -33 9 -69 17 -80 20 -127 27 -443 116 -605 172 -468
159 -822 373 -996 603 -205 270 -323 605 -293 829 12 84 50 160 116 232 100
108 231 167 382 173 62 3 219 -22 266 -42 60 -25 235 -116 235 -122 0 -4 11
-12 25 -18 26 -12 58 -38 143 -117 100 -92 193 -236 221 -343 7 -23 13 -117
15 -210 5 -254 52 -387 182 -516 344 -339 994 -225 1213 213 68 136 86 238 91
511 2 174 4 220 14 365 13 183 21 269 31 325 2 14 7 50 10 80 3 30 12 89 20
130 8 41 17 89 20 105 28 167 105 417 165 535 53 106 113 191 177 255 139 137
302 178 510 130z"/>
</g>
</svg>
